<svg width="512" height="512" viewBox="0 0 512 512" fill="none" xmlns="http://www.w3.org/2000/svg">
  <!-- Background -->
  <rect width="512" height="512" rx="100" fill="#4F4397"/>

  <!-- Left Curly Brace - with centered midpoint -->
  <path d="M140 90C125 90 110 105 110 120V200C110 215 100 230 85 256C100 282 110 297 110 312V392C110 407 125 422 140 422"
        stroke="white" stroke-width="30" stroke-linecap="round" stroke-linejoin="round"/>

  <!-- Right Curly Brace - with centered midpoint -->
  <path d="M372 90C387 90 402 105 402 120V200C402 215 412 230 427 256C412 282 402 297 402 312V392C402 407 387 422 372 422"
        stroke="white" stroke-width="30" stroke-linecap="round" stroke-linejoin="round"/>

  <!-- Log lines with more vertical spacing and less rounded corners -->
  <rect x="180" y="144" width="152" height="30" rx="9" fill="white"/>
  <rect x="180" y="204" width="152" height="30" rx="9" fill="white"/>
  <rect x="180" y="264" width="152" height="30" rx="9" fill="white"/>
  <!-- Last line is shorter -->
  <rect x="180" y="324" width="110" height="30" rx="9" fill="white"/>
</svg>
